<?xml version="1.0" standalone="no"?>
<!DOCTYPE svg PUBLIC "-//W3C//DTD SVG 20010904//EN"
 "http://www.w3.org/TR/2001/REC-SVG-20010904/DTD/svg10.dtd">
<svg version="1.0" xmlns="http://www.w3.org/2000/svg"
 width="522.000000pt" height="522.000000pt" viewBox="0 0 522.000000 522.000000"
 preserveAspectRatio="xMidYMid meet">
<metadata>
Created by potrace 1.11, written by Peter Selinger 2001-2013
</metadata>
<g transform="translate(0.000000,522.000000) scale(0.100000,-0.100000)"
fill="#000000" stroke="none">
<path d="M2557 5214 c-1 -1 -54 -4 -117 -8 -201 -11 -439 -56 -639 -123 -111
-36 -262 -95 -296 -115 -11 -6 -51 -27 -89 -46 -369 -182 -727 -505 -977 -880
-106 -160 -263 -475 -284 -572 -2 -8 -10 -33 -18 -56 -16 -45 -71 -256 -82
-319 -33 -177 -43 -319 -40 -525 4 -210 6 -232 31 -380 21 -124 22 -129 48
-232 91 -350 262 -689 493 -978 88 -111 274 -296 393 -391 291 -233 625 -402
972 -490 68 -17 132 -33 143 -35 243 -41 314 -48 510 -48 180 0 270 7 431 33
660 109 1243 464 1657 1008 237 311 435 779 483 1138 3 28 8 52 9 55 10 17 20
199 20 365 0 169 -7 301 -20 360 -2 11 -7 38 -11 60 -12 84 -16 103 -44 215
-71 282 -173 516 -334 770 -22 36 -44 70 -48 75 -5 6 -33 44 -64 85 -314 417
-762 738 -1256 900 -153 50 -317 90 -438 105 -30 4 -64 9 -74 11 -38 7 -353
23 -359 18z"/>
</g>
</svg>
