<svg xmlns="http://www.w3.org/2000/svg" xmlns:xlink="http://www.w3.org/1999/xlink" version="1.1" width="256" height="256" viewBox="0 0 256 256" xml:space="preserve">
<defs>
</defs>
<g style="stroke: none; stroke-width: 0; stroke-dasharray: none; stroke-linecap: butt; stroke-linejoin: miter; stroke-miterlimit: 10; fill: none; fill-rule: nonzero; opacity: 1;" transform="translate(1.4065934065934016 1.4065934065934016) scale(2.81 2.81)">
	<path d="M 45 0 C 20.147 0 0 20.467 0 45.714 C 0 67.034 14.367 84.944 33.802 90.966 C 36.267 91.477 37.191 89.921 37.191 88.576 C 37.191 87.37 37.134 84.005 37.134 80.092 C 24.75 82.362 21.54 77.275 20.552 74.657 C 19.998 73.45 17.597 69.312 15.492 68.106 C 13.75 67.166 11.285 64.896 15.426 64.829 C 19.305 64.762 22.001 68.173 22.88 69.446 C 27.292 76.47 34.265 74.858 37.455 73.517 C 37.851 70.495 39.133 68.442 40.549 67.301 C 29.63 66.159 18.117 62.157 18.117 44.307 C 18.117 39.22 20.024 35.015 22.979 31.747 C 22.517 30.604 20.816 25.853 23.507 19.43 C 23.507 19.43 27.622 18.218 37.191 24.242 C 41.134 23.231 45.341 22.725 49.548 22.725 C 53.755 22.725 57.962 23.231 61.905 24.242 C 71.474 18.151 75.589 19.43 75.589 19.43 C 78.28 25.853 76.579 30.604 76.117 31.747 C 79.072 35.015 80.979 39.153 80.979 44.307 C 80.979 62.224 69.4 66.159 58.481 67.301 C 60.293 68.711 61.839 71.465 61.839 75.871 C 61.839 82.228 61.782 86.901 61.782 88.576 C 61.782 89.921 62.706 91.544 65.171 90.966 C 84.606 84.944 98.973 67.034 98.973 45.714 C 99 20.467 78.853 0 45 0 z" style="stroke: none; stroke-width: 1; stroke-dasharray: none; stroke-linecap: butt; stroke-linejoin: miter; stroke-miterlimit: 10; fill: rgb(36,41,46); fill-rule: nonzero; opacity: 1;" transform=" matrix(1 0 0 1 0 0) " stroke-linecap="round" />
</g>
</svg>
